<?xml version="1.0" encoding="utf-8"?>
<!-- Generator: Adobe Illustrator 25.2.0, SVG Export Plug-In . SVG Version: 6.00 Build 0)  -->
<svg version="1.1" id="レイヤー_1" xmlns="http://www.w3.org/2000/svg" xmlns:xlink="http://www.w3.org/1999/xlink" x="0px"
	 y="0px" viewBox="0 0 60.7 60.7" style="enable-background:new 0 0 60.7 60.7;" xml:space="preserve">
<g>
	<path d="M42.31,9.18c1.71-0.03,3.32,0.27,4.84,0.9c1.52,0.63,2.85,1.5,3.99,2.61c1.14,1.11,2.05,2.42,2.73,3.91s1.03,3.1,1.06,4.81
		c0.03,1.66-0.26,3.25-0.86,4.77c-0.6,1.52-1.48,2.87-2.63,4.06L30.84,51.52L9.56,30.93c-1.19-1.15-2.11-2.48-2.77-3.97
		c-0.65-1.5-0.99-3.07-1.02-4.73c-0.03-1.71,0.27-3.32,0.9-4.84s1.49-2.85,2.6-4s2.4-2.06,3.9-2.74s3.1-1.03,4.81-1.06
		c1.3-0.02,2.47,0.12,3.5,0.42c1.03,0.3,1.98,0.72,2.85,1.25c0.87,0.53,1.7,1.15,2.49,1.86c0.79,0.71,1.59,1.48,2.42,2.29l1.02,1.01
		l0.96-1.02c0.8-0.84,1.58-1.64,2.34-2.38c0.76-0.75,1.57-1.4,2.42-1.96c0.85-0.56,1.79-1.01,2.81-1.34
		C39.82,9.38,40.99,9.2,42.31,9.18z M30.76,46.56l18.16-18.77c0.82-0.84,1.44-1.81,1.87-2.9s0.63-2.23,0.62-3.42
		c-0.02-1.24-0.27-2.39-0.75-3.47c-0.48-1.08-1.13-2.01-1.94-2.8c-0.81-0.79-1.76-1.41-2.85-1.86c-1.09-0.45-2.25-0.66-3.49-0.64
		c-1.16,0.02-2.17,0.21-3.03,0.58c-0.87,0.36-1.66,0.84-2.4,1.42c-0.73,0.58-1.43,1.24-2.08,1.96c-0.66,0.73-1.34,1.46-2.06,2.21
		l-2.45,2.51l-2.53-2.43c-0.74-0.72-1.46-1.43-2.15-2.14c-0.69-0.71-1.4-1.34-2.14-1.89s-1.56-1-2.44-1.34
		c-0.89-0.34-1.9-0.49-3.04-0.47c-1.22,0.02-2.37,0.28-3.44,0.77c-1.07,0.49-2.01,1.14-2.8,1.96c-0.79,0.82-1.42,1.77-1.87,2.86
		s-0.67,2.25-0.65,3.47c0.02,1.19,0.27,2.32,0.74,3.4c0.47,1.08,1.13,2.02,1.98,2.84L30.76,46.56z"/>
</g>
</svg>
