<?xml version="1.0" encoding="utf-8"?>
<!-- Generator: Adobe Illustrator 21.1.0, SVG Export Plug-In . SVG Version: 6.00 Build 0)  -->
<svg version="1.1"
	 id="svg2" xmlns:cc="http://creativecommons.org/ns#" xmlns:dc="http://purl.org/dc/elements/1.1/" xmlns:rdf="http://www.w3.org/1999/02/22-rdf-syntax-ns#"
	 xmlns="http://www.w3.org/2000/svg" xmlns:xlink="http://www.w3.org/1999/xlink" x="0px" y="0px" viewBox="0 0 450 230"
	 style="enable-background:new 0 0 450 230;" xml:space="preserve">
<path id="polygon10" d="M309.6,40.5c-40,0-62.5,18.3-63.3,49.5h35.5v-0.6c0-15.2,8.6-22.1,26.1-22.1c16.5,0,25.3,6.3,25.3,16.4
	c0,12.2-9.6,16-31.3,16c-2.2,0-4.6-0.2-6.9-0.2v26.7c3.2-0.2,6.3-0.2,9.1-0.2c22.7,0,32.7,3.9,32.7,17.1c0,12.4-9.4,18.5-27.7,18.5
	c-20.3,0-29.9-7.7-29.9-24.2v-1h-35.8v2.2c0,32.7,21.9,52.1,62.1,52.1c42.8,0,67.5-18.9,67.5-46c0-17.1-8-28.2-24.5-34.3
	c13.4-6.7,19.7-16.2,19.7-30.2C368.2,55.7,347.3,40.5,309.6,40.5L309.6,40.5z M77,42.4l59,82.1V189h36.1v-64.5l60.1-82.1h-43.1
	L155,92.9l-34.6-50.5L77,42.4L77,42.4z M203.2,99.8v26.4h36.5V99.8L203.2,99.8L203.2,99.8z"/>
</svg>
