<?xml version="1.0" encoding="utf-8"?>
<!-- Generator: Adobe Illustrator 25.2.0, SVG Export Plug-In . SVG Version: 6.00 Build 0)  -->
<svg version="1.1" id="レイヤー_1" xmlns="http://www.w3.org/2000/svg" xmlns:xlink="http://www.w3.org/1999/xlink" x="0px"
	 y="0px" viewBox="0 0 60.7 60.7" style="enable-background:new 0 0 60.7 60.7;" xml:space="preserve">
<g id="グループ_2" transform="translate(56 1)">
	<g id="楕円形_3">
		<path d="M-25.23,31.26c-6.71,0-12.16-5.46-12.16-12.16s5.45-12.16,12.16-12.16s12.16,5.46,12.16,12.16S-18.52,31.26-25.23,31.26z
			 M-25.23,10.26c-4.87,0-8.84,3.97-8.84,8.84c0,4.87,3.97,8.84,8.84,8.84c4.87,0,8.84-3.97,8.84-8.84
			C-16.39,14.22-20.35,10.26-25.23,10.26z"/>
	</g>
	<g id="パス_6">
		<path d="M-5.64,51.76h-40.02l1.16-2.39c6.21-12.78,12.85-19.09,19.71-18.81c11.1,0.48,18,18.19,18.29,18.94L-5.64,51.76z
			 M-40.31,48.44h29.72c-2.11-4.51-7.46-14.26-14.35-14.56C-29.89,33.72-35.18,38.69-40.31,48.44z"/>
	</g>
</g>
</svg>
