<svg width="1189" height="160" viewBox="0 0 1189 160" fill="none" xmlns="http://www.w3.org/2000/svg">
<path d="M59.7 13.7501C64.27 15.7101 65.14 16.1501 65.14 23.3301C65.14 37.9201 65.14 45.3201 64.92 46.6301C64.7 48.3701 64.27 48.5901 62.52 48.5901C59.47 48.5901 61 42.2801 55.99 31.1701C51.42 20.9401 45.76 14.8401 36.39 14.8401C25.29 14.8401 15.92 24.4201 15.92 35.9601C15.92 49.8901 23.76 59.2601 37.47 67.5301C58.81 80.3801 73.4 89.0901 73.4 112.16C73.4 136.76 56.2 152.87 31.16 152.87C24.19 152.87 17.88 152 12.44 150.26C1.98999 146.78 1.98999 145.91 1.98999 123.7C1.98999 108.02 3.07999 108.02 5.03999 108.02C8.30999 108.02 7.43999 109.11 8.95999 115.42C13.53 134.36 21.15 147.64 35.96 147.64C49.46 147.64 60.35 135.88 60.35 118.46C60.35 105.4 53.6 95.1601 39.23 86.0201C17.24 72.1001 2.86999 63.1701 2.86999 42.0501C2.86999 23.9801 19.85 9.61011 39.88 9.61011C46.85 9.61011 55.34 11.7901 59.69 13.7501H59.7Z" fill="white"/>
<path d="M87.13 13.1C91.48 13.1 95.62 12.23 98.67 12.23C102.15 12.23 103.02 12.67 103.02 15.06C103.02 17.45 101.06 17.67 99.32 17.89C96.71 17.89 94.75 19.41 94.75 22.46C94.75 24.86 96.06 29.65 97.36 34L117.61 101.93C120.22 110.42 122.62 120.65 124.58 120.65C125.45 120.65 126.1 119.34 126.98 116.95L133.73 97.35C137.43 86.68 139.39 81.67 139.39 79.71C139.39 79.06 138.95 77.1 138.3 75.14L122.19 25.93C120.88 21.79 118.92 18.74 115.66 18.31C112.39 17.87 110.87 17.22 110.87 14.83C110.87 13.31 112.39 12.22 115.22 12.22C118.05 12.22 121.53 13.09 128.28 13.09C134.59 13.09 140.26 12.22 141.78 12.22C143.96 12.22 145.05 12.87 145.05 15.05C145.05 17.45 143.09 17.88 141.13 18.1C139.17 18.32 136.56 18.54 136.56 23.11C136.56 25.72 138.08 31.38 140.91 39.88C145.92 54.47 146.14 58.17 147.44 58.17C148.53 58.17 151.14 49.24 152.88 44.89C156.8 34.44 159.41 25.29 159.41 22.46C159.41 19.41 157.89 18.11 155.49 17.89C153.09 17.67 151.14 17.24 151.14 14.62C151.14 13.1 152.01 12.22 153.97 12.22C155.71 12.22 159.41 13.09 162.46 13.09C166.6 13.09 172.04 12.22 174 12.22C175.96 12.22 176.83 13.31 176.83 14.83C176.83 16.35 176.61 17.23 172.69 17.88C168.99 18.53 166.59 21.36 165.29 25.07C154.19 56.86 150.27 65.78 150.27 67.09C150.27 67.96 152.45 75.15 156.8 89.08C163.33 109.76 165.73 120.65 167.03 120.65C167.9 120.65 168.34 118.69 170.51 111.51L192.72 34.43C194.46 28.33 194.9 25.28 194.9 22.89C194.9 19.84 192.94 18.97 190.76 18.54C187.93 17.89 184.45 18.1 184.45 15.27C184.45 13.31 185.1 12.22 187.5 12.22C190.55 12.22 194.47 13.09 199.26 13.09C202.31 13.09 207.1 12.22 209.49 12.22C211.23 12.22 212.32 13.09 212.32 15.05C212.32 17.23 211.01 17.66 207.75 18.32C203.18 19.19 201 27.25 197.95 37.92L166.38 147C165.29 150.92 164.64 152.88 162.46 152.88C159.85 152.88 159.41 150.92 158.32 146.78L142.64 91.04H142.2L124.35 145.25C122.61 150.26 122.17 152.87 119.56 152.87C117.6 152.87 117.17 152.65 111.5 133.27L82.11 30.94C79.93 23.54 78.63 18.96 74.49 17.66C72.53 17.01 70.79 16.35 70.79 14.83C70.79 13.74 71.23 12.22 74.49 12.22C78.41 12.22 83.42 13.09 87.12 13.09L87.13 13.1Z" fill="white"/>
<path d="M254.35 13.1C275.25 13.1 288.97 12.23 290.71 12.23C293.54 12.23 295.06 12.23 295.5 15.71C295.72 17.45 295.72 22.46 295.72 25.51C295.72 38.57 295.5 45.11 295.07 45.98C294.85 46.85 294.2 47.29 293.11 47.29C291.59 47.29 291.37 46.85 288.54 38.8C282.66 22.47 273.73 17.46 256.32 17.46C251.97 17.46 249.35 17.68 246.74 18.11C243.91 18.55 242.6 20.07 242.6 22.9V70.58C242.6 73.85 243.91 74.06 251.74 74.06H254.35C264.8 74.06 270.9 72.32 273.29 64.48C275.25 58.38 275.69 55.33 277.43 55.33C278.95 55.33 279.39 55.77 279.39 59.68C279.39 65.34 278.52 71.22 278.52 76.88C278.52 83.19 279.39 91.69 279.39 97.35C279.39 100.4 278.3 100.83 277.43 100.83C276.12 100.83 275.47 99.74 274.38 95.6C271.55 84.71 270.03 79.27 255.22 79.27C248.25 79.27 242.59 79.27 242.59 82.32V130.44C242.59 139.15 247.38 145.03 261.97 145.03C280.48 145.03 287.88 138.93 292.67 119.99C294.85 111.28 295.94 111.06 296.81 111.06C297.46 111.06 298.33 111.06 298.55 111.93C299.2 114.76 299.2 123.69 299.2 129.57V143.07C299.2 147.42 298.98 150.26 293.32 150.26C283.96 150.26 256.31 149.39 250.21 149.39C240.19 149.39 230.18 150.26 221.47 150.26C216.03 150.26 214.28 149.82 214.28 147.43C214.28 145.47 216.46 144.6 219.72 144.16C226.47 143.29 228.21 140.46 228.21 133.27V25.29C228.21 19.41 226.47 18.32 219.28 17.45C216.45 17.01 215.58 16.36 215.58 14.84C215.58 13.32 216.89 12.23 221.24 12.23C226.47 12.23 235.83 13.1 254.33 13.1H254.35Z" fill="white"/>
<path d="M354.29 12.4401L388.91 136.54C390.22 141.11 392.39 144.38 394.35 145.03C398.27 146.12 400.88 146.55 400.88 148.51C400.88 149.82 399.79 150.25 396.09 150.25C391.08 150.25 388.03 149.38 383.03 149.38C378.03 149.38 371.49 150.25 367.79 150.25C365.39 150.25 363.87 149.6 363.87 147.85C363.87 145.89 366.7 145.02 369.53 145.02C372.36 145.02 375.19 144.37 375.19 139.79C375.19 137.83 374.54 136.09 373.88 133.26L369.74 117.58C366.04 103.65 365.39 101.03 361.25 101.03H335.99C332.94 101.03 331.64 101.03 329.02 111.48L326.41 122.37C324.23 131.73 323.14 136.52 323.14 138.92C323.14 143.49 325.97 144.36 332.28 145.23C335.33 145.67 336.42 146.32 336.42 147.84C336.42 149.8 335.33 150.24 332.5 150.24C329.45 150.24 324.23 149.37 319.22 149.37C313.34 149.37 308.33 150.24 307.24 150.24C305.93 150.24 304.84 149.59 304.84 147.84C304.84 146.75 305.06 145.66 308.54 144.79C310.28 144.35 311.59 143.92 312.89 142.18C313.76 141.09 314.85 136.95 315.29 135.43L320.3 118.66C328.14 92.5301 347.3 16.9801 347.52 15.0201C348.39 9.58008 350.57 9.58008 351.22 9.58008C353.18 9.58008 353.83 10.8901 354.27 12.4101L354.29 12.4401ZM338.18 95.8301H359.3C362.35 95.8301 362.78 95.1801 362.78 94.0901C362.78 91.6901 361.04 86.0301 358.64 77.7601C352.54 56.6401 351.24 49.2401 349.93 45.9701C349.49 44.8801 348.84 44.2301 347.75 44.2301C346.23 44.2301 345.79 45.7501 344.05 53.1601C342.53 59.9101 334.03 92.5701 334.03 94.3101C334.03 95.4001 334.9 95.8301 338.17 95.8301H338.18Z" fill="white"/>
<path d="M402.19 13.1H466.64C477.31 13.1 473.61 7 478.18 7C480.14 7 480.79 8.31 480.79 13.31C480.79 19.19 479.92 34.65 478.83 42.92C478.39 46.62 477.31 49.23 475.56 49.23C472.73 49.23 472.08 40.96 471.21 37.04C469.69 30.07 467.51 24.19 461.85 20.71C459.02 18.97 456.84 18.31 450.31 18.31H447.7C440.73 18.31 440.51 18.96 440.51 21.58V133.27C440.51 144.81 445.95 144.16 450.09 144.81C454.66 145.46 456.62 145.9 456.62 147.64C456.62 150.04 454.44 150.25 452.05 150.25C450.74 150.25 443.99 149.38 433.33 149.38C420.7 149.38 416.35 150.25 414.82 150.25C411.34 150.25 410.47 149.38 410.47 147.64C410.47 145.24 412.87 144.81 419.83 144.16C424.62 143.72 426.14 141.55 426.14 133.71V21.15C426.14 18.54 425.05 18.32 415.69 18.32C401.97 18.32 397.62 31.38 393.7 42.27C393.05 44.01 391.52 49.24 389.56 49.24C387.6 49.24 387.16 48.37 387.16 44.45C387.16 43.8 389.99 7 394.56 7C398.26 7 397.61 13.1 402.18 13.1H402.19Z" fill="white"/>
<path d="M545.23 13.7501C549.8 15.7101 550.67 16.1501 550.67 23.3301C550.67 37.9201 550.67 45.3201 550.45 46.6301C550.23 48.3701 549.8 48.5901 548.05 48.5901C545 48.5901 546.53 42.2801 541.52 31.1701C536.95 20.9401 531.29 14.8401 521.92 14.8401C510.82 14.8401 501.45 24.4201 501.45 35.9601C501.45 49.8901 509.29 59.2601 523 67.5301C544.34 80.3801 558.93 89.0901 558.93 112.16C558.93 136.76 541.73 152.87 516.69 152.87C509.72 152.87 503.41 152 497.97 150.26C487.52 146.78 487.52 145.91 487.52 123.7C487.52 108.02 488.61 108.02 490.57 108.02C493.84 108.02 492.97 109.11 494.49 115.42C499.06 134.36 506.68 147.64 521.49 147.64C534.99 147.64 545.88 135.88 545.88 118.46C545.88 105.4 539.13 95.1601 524.76 86.0201C502.77 72.0901 488.4 63.1601 488.4 42.0401C488.4 23.9701 505.38 9.6001 525.41 9.6001C532.38 9.6001 540.87 11.7801 545.22 13.7401L545.23 13.7501Z" fill="white"/>
<path d="M641.27 13.4799C652.59 13.4799 669.79 12.6099 676.54 12.6099C680.24 12.6099 681.98 12.8299 682.64 13.2599C683.73 13.9099 684.6 14.5699 684.6 22.8399V34.8199C684.6 44.1799 684.17 47.2299 682.64 47.2299C680.46 47.2299 680.24 46.7899 678.5 40.6999C675.23 29.3799 670.01 17.8399 647.15 17.8399C637.35 17.8399 635.61 19.3599 635.61 22.8499V72.4899C635.61 75.3199 638.66 75.3199 641.05 75.3199C657.16 75.3199 662.17 74.2299 665 63.1299C666.74 56.3799 667.39 55.9399 668.48 55.9399C670.22 55.9399 670.44 57.2499 670.44 60.9499C670.44 65.2999 669.57 70.7499 669.57 77.9299C669.57 83.1599 670.44 95.7799 670.44 98.6099C670.44 101.88 669.35 102.09 668.48 102.09C666.96 102.09 666.3 100.13 665.21 95.9899C662.38 85.0999 660.2 80.5299 646.05 80.5299C636.47 80.5299 635.6 81.3999 635.6 85.3199V128.21C635.6 138.23 635.82 144.1 647.79 144.76C651.27 144.98 655.63 145.63 655.63 147.81C655.63 149.77 654.76 150.64 651.49 150.64C649.31 150.64 640.17 149.77 629.5 149.77C618.18 149.77 611.65 150.64 610.12 150.64C607.29 150.64 605.98 150.2 605.98 147.59C605.98 145.63 607.29 145.19 608.81 144.98C620.57 142.8 621.22 141.06 621.22 133.44V30.2499C621.22 20.4499 619.26 18.9299 612.51 18.2799C607.09 17.6199 606 17.1899 606 15.2299C606 13.2699 607.52 12.6199 611.01 12.6199C612.97 12.6199 633.44 13.4899 641.27 13.4899V13.4799Z" fill="white"/>
<path d="M786.28 80.54C786.28 124.3 761.89 153.26 739.47 153.26C711.6 153.26 690.48 119.95 690.48 82.72C690.48 40.92 712.69 10 738.38 10C766.68 10 786.28 45.93 786.28 80.54ZM738.38 148.04C753.62 148.04 768.86 128.44 768.86 81.63C768.86 34.82 754.27 15.23 738.38 15.23C723.57 15.23 707.9 33.08 707.9 81.64C707.9 130.2 722.71 148.05 738.38 148.05V148.04Z" fill="white"/>
<path d="M807.4 13.4799C815.24 13.4799 824.17 12.6099 832.22 12.6099C857.91 12.6099 874.02 26.9799 874.02 46.5799C874.02 66.1799 859.87 75.7599 846.59 79.0199C843.76 79.6699 842.89 79.2399 842.89 80.1099C842.89 81.1999 845.94 81.1999 848.55 86.8599C849.86 89.6899 852.47 94.9199 853.99 98.6199L863.57 120.83C874.02 144.78 875.55 144.34 882.29 145.22C885.77 145.66 888.39 146.53 888.39 148.27C888.39 150.01 887.52 150.67 885.12 150.67C882.29 150.67 880.11 149.8 874.89 149.8C870.54 149.8 866.4 150.67 863.13 150.67C861.17 150.67 860.3 148.93 859.65 147.4C856.6 141.09 853.34 132.38 850.07 124.54L837.66 94.4899C834.61 87.2999 832 84.4699 823.07 84.4699C815.88 84.4699 815.67 86.2099 815.67 88.3899V134.77C815.67 139.34 816.76 143.26 822.64 144.35C828.3 145.44 832.44 145.87 832.44 148.27C832.44 150.01 831.35 150.67 828.52 150.67C827.43 150.67 820.46 149.8 809.36 149.8C796.73 149.8 791.94 150.67 790.2 150.67C786.72 150.67 785.19 150.23 785.19 148.49C785.19 146.31 787.37 145.88 790.85 145.44C799.12 144.35 801.3 143.04 801.3 133.68V29.8099C801.3 19.7899 798.9 18.7099 791.28 18.0499C788.01 17.8299 786.05 17.1799 786.05 15.4399C786.05 13.6999 787.36 12.6099 790.84 12.6099C795.85 12.6099 801.94 13.4799 807.39 13.4799H807.4ZM815.68 76.4099C815.68 78.3699 816.33 79.2399 824.17 79.2399C843.98 79.2399 857.92 67.4799 857.92 47.8899C857.92 28.2999 847.69 17.8399 829.18 17.8399C820.04 17.8399 815.68 18.9299 815.68 26.3299V76.4099Z" fill="white"/>
<path d="M976.58 12.83L1011.2 136.93C1012.51 141.5 1014.68 144.77 1016.64 145.42C1020.56 146.51 1023.17 146.94 1023.17 148.9C1023.17 150.21 1022.08 150.64 1018.38 150.64C1013.37 150.64 1010.32 149.77 1005.32 149.77C1000.32 149.77 993.78 150.64 990.08 150.64C987.69 150.64 986.16 149.99 986.16 148.24C986.16 146.28 988.99 145.41 991.82 145.41C994.65 145.41 997.48 144.76 997.48 140.18C997.48 138.22 996.83 136.48 996.17 133.65L992.03 117.97C988.33 104.04 987.68 101.42 983.54 101.42H958.28C955.23 101.42 953.93 101.42 951.31 111.87L948.7 122.76C946.52 132.12 945.43 136.91 945.43 139.31C945.43 143.88 948.26 144.75 954.57 145.62C957.62 146.06 958.71 146.71 958.71 148.23C958.71 150.19 957.62 150.63 954.79 150.63C951.74 150.63 946.52 149.76 941.51 149.76C935.63 149.76 930.62 150.63 929.54 150.63C928.23 150.63 927.14 149.98 927.14 148.23C927.14 147.14 927.36 146.05 930.84 145.18C932.58 144.74 933.89 144.31 935.19 142.57C936.06 141.48 937.15 137.34 937.59 135.82L942.6 119.05C950.44 92.92 969.6 17.37 969.82 15.41C970.69 9.96997 972.87 9.96997 973.52 9.96997C975.48 9.96997 976.13 11.28 976.57 12.8L976.58 12.83ZM960.47 96.22H981.59C984.64 96.22 985.07 95.57 985.07 94.48C985.07 92.08 983.33 86.42 980.93 78.15C974.83 57.03 973.53 49.63 972.22 46.36C971.78 45.27 971.13 44.62 970.04 44.62C968.52 44.62 968.08 46.14 966.34 53.55C964.82 60.3 956.32 92.96 956.32 94.7C956.32 95.79 957.19 96.22 960.46 96.22H960.47Z" fill="white"/>
<path d="M1024.48 148.26C1024.48 145.86 1026.66 145.43 1030.36 144.78C1034.93 143.91 1039.72 144.78 1039.72 134.33V31.9899C1039.72 19.3599 1036.89 19.1399 1033.62 18.7099C1029.48 18.0599 1024.48 18.4899 1024.48 15.4399C1024.48 13.4799 1025.57 12.6099 1029.27 12.6099C1032.75 12.6099 1040.81 13.4799 1046.91 13.4799C1060.63 13.4799 1064.33 12.6099 1066.5 12.6099C1068.9 12.6099 1070.42 13.2599 1070.42 15.0099C1070.42 16.7599 1069.77 17.4099 1062.15 18.4899C1055.62 19.3599 1054.09 21.5399 1054.09 26.7599V129.75C1054.09 139.98 1057.79 145.43 1069.11 145.43C1084.79 145.43 1094.15 136.07 1098.5 119.52C1100.02 113.64 1100.46 112.33 1101.98 112.33C1103.29 112.33 1103.94 112.55 1103.94 118.64V132.79C1103.94 146.72 1103.72 150.64 1101.33 150.64C1095.45 150.64 1081.73 149.77 1056.91 149.77C1038.62 149.77 1032.09 150.64 1028.82 150.64C1026.21 150.64 1024.47 150.2 1024.47 148.24L1024.48 148.26Z" fill="white"/>
<path d="M1109.18 148.26C1109.18 145.86 1111.36 145.43 1115.06 144.78C1119.63 143.91 1124.42 144.78 1124.42 134.33V31.9899C1124.42 19.3599 1121.59 19.1399 1118.32 18.7099C1114.18 18.0599 1109.18 18.4899 1109.18 15.4399C1109.18 13.4799 1110.27 12.6099 1113.97 12.6099C1117.45 12.6099 1125.51 13.4799 1131.61 13.4799C1145.33 13.4799 1149.03 12.6099 1151.2 12.6099C1153.6 12.6099 1155.12 13.2599 1155.12 15.0099C1155.12 16.7599 1154.47 17.4099 1146.85 18.4899C1140.32 19.3599 1138.79 21.5399 1138.79 26.7599V129.75C1138.79 139.98 1142.49 145.43 1153.81 145.43C1169.49 145.43 1178.85 136.07 1183.2 119.52C1184.72 113.64 1185.16 112.33 1186.68 112.33C1187.99 112.33 1188.64 112.55 1188.64 118.64V132.79C1188.64 146.72 1188.42 150.64 1186.03 150.64C1180.15 150.64 1166.43 149.77 1141.61 149.77C1123.32 149.77 1116.79 150.64 1113.52 150.64C1110.91 150.64 1109.17 150.2 1109.17 148.24L1109.18 148.26Z" fill="white"/>
</svg>
