<svg width="2610" height="277" viewBox="0 0 2610 277" fill="none" xmlns="http://www.w3.org/2000/svg">
<path d="M59.3181 74.3942C59.3181 57.7742 53.7818 49.86 41.9181 49.86C30.0545 49.86 36.3818 49.86 34.7999 49.86C30.8454 49.86 28.4727 50.6514 26.0999 50.6514C23.7272 50.6514 20.5636 49.86 18.9818 47.4857C16.609 45.1114 15.8181 42.7371 15.8181 39.5714C15.8181 31.6571 20.5636 27.7 30.8454 27.7C41.1272 27.7 34.009 27.7 35.5908 27.7L52.9908 30.0742C59.3181 30.8657 66.4363 31.6571 73.5545 31.6571C80.6727 31.6571 87.7908 31.6571 96.4908 30.0742L111.518 27.7C113.1 27.7 114.682 27.7 116.264 27.7C125.754 27.7 131.291 31.6571 131.291 39.5714C131.291 47.4857 130.5 45.1114 128.127 47.4857C125.754 49.86 123.382 50.6514 121.009 50.6514C118.636 50.6514 115.473 50.6514 112.309 49.86C110.727 49.86 108.354 49.86 105.191 49.86C94.1181 49.86 87.7908 57.7742 87.7908 74.3942V208.937C87.7908 225.557 93.3272 234.263 105.191 234.263C117.054 234.263 109.145 234.263 112.309 234.263C116.264 234.263 119.427 233.471 121.009 233.471C128.127 233.471 131.291 237.429 131.291 244.551C131.291 251.674 126.545 256.423 116.264 256.423H113.891C113.1 256.423 112.309 256.423 111.518 256.423L94.1181 254.049C88.5817 253.257 82.2545 252.466 75.9272 252.466C66.4363 252.466 58.5272 252.466 50.6181 254.049L35.5908 256.423C35.5908 256.423 34.009 256.423 33.2181 256.423H30.8454C21.3545 256.423 16.609 252.466 16.609 244.551C16.609 236.637 19.7727 233.471 26.8908 233.471C34.009 233.471 30.8454 233.471 35.5908 233.471C37.9636 233.471 40.3363 234.263 42.709 234.263C53.7818 234.263 60.109 225.557 60.109 208.937V74.3942H59.3181Z" fill="white"/>
<path d="M276.027 204.189C276.027 217.643 277.609 224.766 279.982 227.14C282.354 229.514 284.727 230.306 287.891 231.097C291.054 231.097 298.173 231.097 310.036 231.097H339.3C354.327 231.097 364.609 228.723 370.145 224.766C374.891 220.809 378.054 212.103 378.054 200.231C378.054 188.36 378.054 193.109 378.054 188.36C378.054 179.654 378.054 174.906 378.054 172.531C378.054 163.034 382.009 158.286 389.918 158.286C397.827 158.286 404.154 163.034 404.154 171.74C404.154 180.446 404.154 176.489 404.154 178.071L401.782 195.483C401.782 200.231 400.991 205.771 400.991 210.52C400.991 215.269 400.991 218.434 401.782 224.766C401.782 231.097 402.573 235.846 402.573 239.011C402.573 249.3 397.036 254.049 385.173 254.049C373.309 254.049 378.054 254.049 370.145 253.257C364.609 253.257 356.7 253.257 345.627 252.466H266.536C261 252.466 252.3 252.466 239.645 254.049C238.063 254.049 234.9 254.049 230.154 254.049C225.409 254.049 222.245 254.049 219.873 254.049C210.382 254.049 205.636 250.091 205.636 242.177C205.636 234.263 208.8 231.097 215.918 231.097C223.036 231.097 220.663 231.097 223.827 231.889C227.782 231.889 230.154 232.68 231.736 232.68C242.809 232.68 249.136 223.974 249.136 207.354V74.3942C249.136 57.7742 243.6 49.86 231.736 49.86C219.873 49.86 226.2 49.86 224.618 49.86C220.664 49.86 218.291 50.6514 215.918 50.6514C213.545 50.6514 210.382 49.86 208.8 47.4857C206.427 45.1114 205.636 42.7371 205.636 39.5714C205.636 31.6571 210.382 27.7 219.873 27.7C229.363 27.7 223.036 27.7 224.618 27.7L242.018 30.0742C251.509 30.8657 259.418 31.6571 264.164 31.6571C268.909 31.6571 276.818 31.6571 285.518 30.0742L300.545 27.7C302.127 27.7 303.709 27.7 305.291 27.7C315.573 27.7 320.318 31.6571 320.318 39.5714C320.318 47.4857 319.527 45.1114 317.154 47.4857C314.782 49.86 312.409 50.6514 310.036 50.6514C307.664 50.6514 304.5 50.6514 301.336 49.86C299.754 49.86 297.382 49.86 294.218 49.86C283.145 49.86 276.818 57.7742 276.818 74.3942V204.189H276.027Z" fill="white"/>
<path d="M547.309 218.434C395.455 200.231 419.182 70.4371 547.309 56.9828C552.845 56.9828 552.055 56.9828 552.055 64.1056V215.268C552.055 218.434 550.473 218.434 547.309 218.434Z" fill="#BD1C31"/>
<path d="M786.955 187.569C762.436 199.44 699.955 215.269 672.273 216.851C666.736 216.851 665.945 216.851 665.945 213.686V64.1057C665.945 56.9828 665.945 56.9828 670.691 56.9828C675.436 56.9828 679.391 56.9828 684.136 58.5657C706.282 61.7314 731.591 68.8542 745.827 73.6028C752.155 75.9771 754.527 76.7685 761.645 79.1428C764.018 79.9342 770.345 82.3085 772.718 83.1C776.673 84.6828 779.045 87.0571 777.464 78.3514C775.882 69.6457 769.555 63.3142 757.691 54.6085C690.464 4.74853 545.727 7.12282 479.291 43.5285C366.191 103.677 403.364 201.814 482.455 234.263C548.891 261.963 680.182 281.749 778.255 202.606C781.418 200.231 786.955 195.483 791.7 189.943C797.236 183.611 791.7 185.194 787.745 187.569H786.955ZM547.309 218.434C395.455 200.231 419.182 70.4371 547.309 56.9828C552.845 56.9828 552.055 56.9828 552.055 64.1057V215.269C552.055 218.434 550.473 218.434 547.309 218.434Z" fill="white"/>
<path d="M858.136 82.3085L905.591 224.766L950.673 84.6828C953.836 73.6028 955.418 66.48 955.418 61.7314C955.418 53.0257 950.673 49.0685 941.973 49.0685C933.273 49.0685 938.018 49.0685 934.855 49.86C931.691 49.86 929.318 50.6514 927.736 50.6514C919.036 50.6514 914.291 46.6942 914.291 38.78C914.291 30.8657 918.245 27.7 926.945 27.7C935.645 27.7 938.809 27.7 948.3 30.0742C957.791 31.6571 964.909 32.4485 969.655 32.4485C977.564 32.4485 987.845 31.6571 999.709 29.2828C1003.66 29.2828 1006.83 28.4914 1010.78 28.4914C1018.69 28.4914 1023.44 32.4485 1023.44 40.3628C1023.44 48.2771 1019.48 51.4428 1010.78 51.4428C1002.08 51.4428 1010.78 51.4428 1009.2 51.4428H1001.29H999.709C995.755 51.4428 992.591 53.0257 990.218 56.9828C987.845 60.9399 984.682 68.8542 980.727 80.7257L926.155 242.177C922.2 253.257 915.082 258.797 904.8 258.797C894.518 258.797 886.609 253.257 882.655 242.177L822.545 73.6028C819.382 65.6885 817.009 60.1485 815.427 57.7742C812.264 53.8171 807.518 52.2342 800.4 52.2342H787.745C779.045 52.2342 774.3 48.2771 774.3 41.1542C774.3 34.0314 779.045 29.2828 787.745 29.2828C796.445 29.2828 793.282 29.2828 796.445 30.0742C809.1 32.4485 820.173 33.2399 829.664 33.2399C839.155 33.2399 843.109 33.24 854.182 30.8657C865.255 29.2828 873.164 28.4914 878.7 28.4914C886.609 28.4914 891.355 32.4485 891.355 39.5714C891.355 46.6942 887.4 51.4428 878.7 51.4428H866.836C857.345 51.4428 851.809 54.6085 851.809 60.9399C851.809 67.2714 851.809 67.2714 853.391 71.2285L857.345 83.1L858.136 82.3085Z" fill="white"/>
<path d="M1070.89 74.3942C1070.89 57.7742 1065.35 49.86 1053.49 49.86C1041.63 49.86 1047.95 49.86 1046.37 49.86C1042.42 49.86 1040.05 50.6514 1037.67 50.6514C1035.3 50.6514 1032.14 49.86 1030.55 47.4857C1028.18 45.1114 1027.39 42.7371 1027.39 39.5714C1027.39 31.6571 1032.14 27.7 1041.63 27.7C1051.12 27.7 1043.21 27.7 1046.37 27.7C1079.59 30.0742 1095.41 30.8657 1093.04 30.8657H1096.2L1176.87 28.4914C1178.45 28.4914 1183.99 28.4914 1194.27 27.7C1197.44 27.7 1201.39 27.7 1203.76 27.7C1215.63 27.7 1221.16 32.4485 1221.16 42.7371C1221.16 53.0257 1221.16 49.86 1220.37 60.1485C1220.37 67.2714 1220.37 73.6028 1220.37 79.9342C1220.37 86.2657 1220.37 93.3885 1220.37 96.5542C1220.37 102.886 1221.16 107.634 1221.16 110.8C1221.16 119.506 1217.21 123.463 1209.3 123.463C1201.39 123.463 1197.44 117.923 1197.44 106.051V88.64C1197.44 69.6457 1193.48 58.5657 1185.57 55.4C1180.04 53.0257 1165.01 51.4428 1140.49 51.4428C1115.97 51.4428 1115.18 51.4428 1112.02 52.2342C1102.53 54.6085 1097.78 61.7314 1097.78 72.02V105.26C1097.78 113.966 1099.36 119.506 1104.11 120.297C1105.69 120.297 1108.06 120.297 1112.02 120.297H1125.46C1139.7 120.297 1146.03 115.549 1146.03 106.051C1146.03 96.5542 1146.03 99.72 1145.24 95.7628C1145.24 91.8057 1144.45 87.8485 1144.45 84.6828C1144.45 75.9771 1148.4 71.2285 1156.31 71.2285C1164.22 71.2285 1168.17 75.9771 1168.17 85.4742C1168.17 94.9714 1168.17 94.18 1165.8 106.051C1164.22 116.34 1164.22 125.046 1164.22 132.96C1164.22 140.874 1164.22 145.623 1165.8 156.703C1165.8 158.286 1165.8 162.243 1167.38 168.574C1167.38 173.323 1168.17 177.28 1168.17 180.446C1168.17 188.36 1164.22 192.317 1156.31 192.317C1148.4 192.317 1144.45 187.569 1144.45 178.071C1144.45 168.574 1144.45 171.74 1145.24 166.991C1145.24 162.243 1146.03 159.077 1146.03 155.911C1146.03 146.414 1139.7 141.666 1127.05 141.666H1112.02C1105.69 141.666 1101.74 142.457 1100.15 144.831C1098.57 147.206 1097.78 151.954 1097.78 159.077V179.654C1097.78 183.611 1097.78 188.36 1097.78 193.9C1097.78 201.023 1097.78 206.563 1097.78 208.937C1097.78 217.643 1100.15 223.183 1103.32 225.557C1105.69 227.14 1111.23 227.931 1120.72 227.931H1166.59C1180.04 227.931 1188.74 226.349 1193.48 222.391C1198.23 218.434 1200.6 211.311 1200.6 200.231C1200.6 189.151 1200.6 191.526 1200.6 185.194C1200.6 178.863 1200.6 173.323 1200.6 170.157C1200.6 159.869 1204.55 155.12 1212.46 155.12C1220.37 155.12 1225.12 159.869 1225.12 170.157C1225.12 180.446 1225.12 180.446 1225.12 188.36C1225.12 196.274 1225.12 202.606 1225.12 206.563C1225.12 210.52 1225.12 214.477 1225.12 220.809C1225.12 227.14 1225.12 231.889 1225.12 235.054C1225.12 245.343 1220.37 250.883 1210.09 250.883C1199.81 250.883 1203.76 250.883 1198.23 250.883C1195.85 250.883 1190.32 250.883 1183.2 250.883C1184.78 250.883 1176.08 250.883 1157.1 250.883C1138.12 250.883 1121.51 250.883 1108.06 250.883C1086.71 250.883 1066.15 250.883 1046.37 253.257C1045.58 253.257 1044.79 253.257 1043.21 253.257H1040.84C1031.35 253.257 1026.6 249.3 1026.6 241.386C1026.6 233.471 1029.76 230.306 1036.88 230.306C1044 230.306 1040.84 230.306 1045.58 230.306C1047.95 230.306 1050.33 231.097 1052.7 231.097C1063.77 231.097 1070.1 222.391 1070.1 205.771V74.3942H1070.89Z" fill="white"/>
<path d="M1392 22.16C1414.15 22.16 1431.55 29.2829 1445.78 43.5286V38.78C1445.78 30.0743 1448.95 25.3257 1456.06 25.3257C1463.18 25.3257 1467.14 30.0743 1467.14 39.5715V41.9458C1467.14 41.9458 1467.14 45.9029 1466.35 52.2343C1466.35 58.5657 1465.55 65.6886 1465.55 74.3943C1465.55 83.1 1465.55 79.1429 1465.55 85.4743V98.9286C1467.14 99.72 1467.14 101.303 1467.14 103.677C1467.14 114.757 1463.18 119.506 1454.48 119.506C1445.78 119.506 1441.04 114.757 1441.04 106.051V94.9715C1441.83 91.8057 1441.83 89.4315 1441.83 87.8486C1441.83 74.3943 1437.08 64.1057 1428.38 56.1915C1419.68 48.2772 1407.03 45.1115 1391.21 45.1115C1375.39 45.1115 1365.11 49.0686 1356.41 56.1915C1347.71 63.3143 1343.75 72.8115 1343.75 84.6829C1343.75 96.5543 1350.08 109.217 1362.74 115.549C1369.85 119.506 1382.51 122.671 1399.91 125.046C1426.8 129.003 1444.99 135.334 1454.48 142.457C1469.51 153.537 1476.63 168.574 1476.63 189.151C1476.63 209.729 1468.72 227.14 1453.69 240.594C1438.66 254.049 1418.89 260.38 1395.16 260.38C1371.44 260.38 1348.5 252.466 1331.89 236.637V241.386C1332.68 244.551 1333.47 246.926 1333.47 248.509C1333.47 256.423 1329.52 260.38 1320.82 260.38C1312.12 260.38 1307.37 255.631 1307.37 246.134C1307.37 236.637 1307.37 243.76 1308.16 243.76L1309.75 226.349C1309.75 217.643 1310.54 212.103 1310.54 209.729C1310.54 204.98 1310.54 198.649 1308.95 189.943C1307.37 181.237 1307.37 174.114 1307.37 170.157C1307.37 159.869 1311.33 155.12 1320.03 155.12C1328.73 155.12 1333.47 159.869 1333.47 170.157V183.611C1333.47 200.231 1339.01 213.686 1349.29 223.974C1360.36 233.471 1374.6 239.011 1392.79 239.011C1410.98 239.011 1422.85 235.054 1433.13 227.14C1443.41 219.226 1448.15 208.146 1448.15 194.691C1448.15 173.323 1434.71 160.66 1407.82 155.911L1388.84 152.746C1369.85 149.58 1354.83 145.623 1344.55 140.874C1335.05 136.917 1327.15 129.794 1321.61 121.089C1316.07 112.383 1312.91 102.094 1312.91 90.2229C1312.91 70.4372 1320.03 54.6086 1334.26 41.9458C1348.5 29.2829 1366.69 23.7429 1389.63 23.7429L1392 22.16Z" fill="white"/>
<path d="M1549.39 80.7257L1577.07 222.391L1611.87 48.2772C1615.04 33.24 1622.15 25.3257 1634.02 25.3257C1645.88 25.3257 1654.58 31.6572 1656.95 45.1114L1690.17 224.766L1718.65 85.4743C1721.02 75.9772 1721.81 68.0629 1721.81 63.3143C1721.81 53.8172 1717.06 49.86 1707.57 49.86C1698.08 49.86 1702.83 49.86 1698.87 49.86C1694.92 49.86 1692.55 49.86 1690.17 49.86C1680.68 49.86 1675.94 45.9029 1675.94 37.9886C1675.94 30.0743 1680.68 26.9086 1690.17 26.9086C1699.66 26.9086 1697.29 26.9086 1701.25 26.9086C1719.44 29.2829 1731.3 30.0743 1737.63 30.0743C1743.95 30.0743 1748.7 30.0743 1757.4 27.7C1766.1 26.1172 1773.22 25.3257 1777.17 25.3257C1785.08 25.3257 1789.83 29.2829 1789.83 37.1972C1789.83 45.1114 1785.87 48.2772 1777.96 48.2772C1770.05 48.2772 1774.8 48.2772 1771.64 47.4857C1769.26 47.4857 1766.89 46.6943 1765.31 46.6943C1760.56 46.6943 1757.4 48.2772 1755.03 52.2343C1752.65 56.1914 1750.28 64.1057 1747.12 75.9772L1709.95 235.846C1706.78 248.509 1700.45 254.049 1689.38 254.049C1678.31 254.049 1670.4 246.134 1667.24 231.097L1633.23 53.8172L1596.05 235.846C1593.68 247.717 1587.35 254.049 1577.07 254.049C1566.79 254.049 1559.67 247.717 1557.3 235.846L1517.75 68.8543C1515.38 60.1486 1513.01 54.6086 1509.85 51.4429C1506.68 48.2772 1501.94 46.6943 1495.61 46.6943H1486.12C1479 47.4857 1475.05 44.32 1475.05 36.4057C1475.05 28.4914 1479 24.5343 1486.91 24.5343C1494.82 24.5343 1493.24 24.5343 1497.98 25.3257C1509.85 27.7 1521.71 28.4914 1532.78 28.4914C1543.85 28.4914 1550.18 27.7 1569.95 25.3257C1573.12 25.3257 1576.28 25.3257 1579.45 25.3257C1587.35 25.3257 1591.31 29.2829 1591.31 36.4057C1591.31 43.5286 1586.56 48.2772 1576.28 48.2772C1566 48.2772 1571.54 48.2772 1566.79 48.2772C1562.84 48.2772 1559.67 48.2772 1557.3 48.2772C1549.39 48.2772 1545.44 52.2343 1545.44 59.3572C1545.44 66.48 1545.44 64.8972 1546.23 68.8543L1548.6 79.9343L1549.39 80.7257Z" fill="white"/>
<path d="M1838.07 74.3944C1838.07 57.7744 1832.54 49.8601 1820.67 49.8601C1808.81 49.8601 1815.14 49.8601 1813.55 49.8601C1809.6 49.8601 1807.23 50.6515 1804.85 50.6515C1802.48 50.6515 1799.32 49.8601 1797.74 47.4858C1795.36 45.1115 1794.57 42.7372 1794.57 39.5715C1794.57 31.6572 1799.32 27.7001 1808.81 27.7001C1818.3 27.7001 1810.39 27.7001 1813.55 27.7001C1846.77 30.0744 1862.59 30.8658 1860.22 30.8658H1863.38L1944.05 28.4915C1945.64 28.4915 1951.17 28.4915 1961.45 27.7001C1964.62 27.7001 1968.57 27.7001 1970.95 27.7001C1982.81 27.7001 1988.35 32.4486 1988.35 42.7372C1988.35 53.0258 1988.35 49.8601 1987.55 60.1486C1987.55 67.2715 1987.55 73.6029 1987.55 79.9344C1987.55 86.2658 1987.55 93.3886 1987.55 96.5544C1987.55 102.886 1988.35 107.634 1988.35 110.8C1988.35 119.506 1984.39 123.463 1976.48 123.463C1968.57 123.463 1964.62 117.923 1964.62 106.052V88.6401C1964.62 69.6458 1960.66 58.5658 1952.75 55.4001C1947.22 53.0258 1932.19 51.4429 1907.67 51.4429C1883.15 51.4429 1882.36 51.4429 1879.2 52.2344C1869.71 54.6086 1864.96 61.7315 1864.96 72.0201V105.26C1864.96 113.966 1866.55 119.506 1871.29 120.297C1872.87 120.297 1875.25 120.297 1879.2 120.297H1892.65C1906.88 120.297 1913.21 115.549 1913.21 106.052C1913.21 96.5544 1913.21 99.7201 1912.42 95.7629C1912.42 91.8058 1911.63 87.8486 1911.63 84.6829C1911.63 75.9772 1915.58 71.2286 1923.49 71.2286C1931.4 71.2286 1935.35 75.9772 1935.35 85.4744C1935.35 94.9715 1935.35 94.1801 1932.98 106.052C1931.4 116.34 1931.4 125.046 1931.4 132.96C1931.4 140.874 1931.4 145.623 1932.98 156.703C1932.98 158.286 1932.98 162.243 1934.56 168.574C1934.56 173.323 1935.35 177.28 1935.35 180.446C1935.35 188.36 1931.4 192.317 1923.49 192.317C1915.58 192.317 1911.63 187.569 1911.63 178.072C1911.63 168.574 1911.63 171.74 1912.42 166.992C1912.42 162.243 1913.21 159.077 1913.21 155.912C1913.21 146.414 1906.88 141.666 1894.23 141.666H1879.2C1872.87 141.666 1868.92 142.457 1867.34 144.832C1865.75 147.206 1864.96 151.954 1864.96 159.077V179.654C1864.96 183.612 1864.96 188.36 1864.96 193.9C1864.96 201.023 1864.96 206.563 1864.96 208.937C1864.96 217.643 1867.34 223.183 1870.5 225.557C1872.87 227.14 1878.41 227.932 1887.9 227.932H1933.77C1947.22 227.932 1955.92 226.349 1960.66 222.392C1965.41 218.434 1967.78 211.312 1967.78 200.232C1967.78 189.152 1967.78 191.526 1967.78 185.194C1967.78 178.863 1967.78 173.323 1967.78 170.157C1967.78 159.869 1971.74 155.12 1979.65 155.12C1987.55 155.12 1992.3 159.869 1992.3 170.157C1992.3 180.446 1992.3 180.446 1992.3 188.36C1992.3 196.274 1992.3 202.606 1992.3 206.563C1992.3 210.52 1992.3 214.477 1992.3 220.809C1992.3 227.14 1992.3 231.889 1992.3 235.054C1992.3 245.343 1987.55 250.883 1977.27 250.883C1966.99 250.883 1970.95 250.883 1965.41 250.883C1963.04 250.883 1957.5 250.883 1950.38 250.883C1951.96 250.883 1943.26 250.883 1924.28 250.883C1905.3 250.883 1888.69 250.883 1875.25 250.883C1853.89 250.883 1833.33 250.883 1813.55 253.257C1812.76 253.257 1811.97 253.257 1810.39 253.257H1808.02C1798.53 253.257 1793.78 249.3 1793.78 241.386C1793.78 233.472 1796.95 230.306 1804.06 230.306C1811.18 230.306 1808.02 230.306 1812.76 230.306C1815.14 230.306 1817.51 231.097 1819.88 231.097C1830.95 231.097 1837.28 222.392 1837.28 205.772V74.3944H1838.07Z" fill="white"/>
<path d="M2178.16 215.269L2166.3 182.82C2164.72 178.863 2163.93 177.28 2162.35 176.489C2160.76 175.697 2157.6 174.906 2153.65 174.906H2094.33C2089.58 174.906 2086.42 174.906 2084.84 177.28C2083.25 178.863 2080.88 182.82 2078.51 189.943L2069.02 216.06C2068.23 218.434 2067.44 220.809 2067.44 223.183C2067.44 230.306 2072.18 234.263 2080.88 234.263C2089.58 234.263 2086.42 234.263 2090.37 234.263C2094.33 234.263 2097.49 234.263 2099.86 234.263C2109.35 234.263 2113.31 238.22 2113.31 246.134C2113.31 254.049 2108.56 257.214 2098.28 257.214C2088 257.214 2094.33 257.214 2091.16 257.214L2074.55 254.84C2071.39 254.84 2066.65 254.84 2059.53 254.84C2052.41 254.84 2046.08 254.84 2042.92 254.84L2028.68 256.423C2022.35 256.423 2017.61 257.214 2015.24 257.214C2006.54 257.214 2001.79 253.257 2001.79 246.134C2001.79 239.011 2005.75 234.263 2014.45 234.263C2023.15 234.263 2017.61 234.263 2018.4 235.846H2023.15C2029.47 235.846 2033.43 233.471 2036.59 228.723C2038.17 227.14 2040.55 221.6 2042.92 212.894L2105.4 43.5285C2109.35 34.0314 2115.68 29.2828 2126.75 29.2828C2137.83 29.2828 2144.15 34.0314 2147.32 43.5285L2207.43 209.729C2211.38 220.017 2214.55 227.14 2217.71 230.306C2220.87 233.471 2225.62 235.054 2231.15 235.054C2236.69 235.054 2234.32 235.054 2235.11 235.054H2244.6C2253.3 234.263 2257.25 238.22 2257.25 245.343C2257.25 252.466 2253.3 257.214 2244.6 257.214C2235.9 257.214 2239.06 257.214 2235.11 257.214C2220.87 255.631 2210.59 254.84 2203.47 254.84C2196.35 254.84 2182.12 255.631 2163.14 257.214C2158.39 257.214 2155.23 257.214 2152.06 257.214C2143.36 257.214 2138.62 253.257 2138.62 246.134C2138.62 239.011 2143.36 235.054 2153.65 235.054C2163.93 235.054 2158.39 235.054 2162.35 235.054C2166.3 235.054 2169.46 235.054 2171.05 235.054C2178.16 235.054 2182.12 231.889 2182.12 226.349C2182.12 220.809 2181.33 222.391 2179.75 217.643L2178.16 215.269ZM2153.65 146.414L2123.59 53.8171L2092.75 146.414C2092.75 147.997 2092.75 148.789 2092.75 148.789C2092.75 151.163 2094.33 151.954 2097.49 151.954H2150.48C2152.85 151.954 2154.44 151.163 2154.44 149.58C2154.44 147.997 2154.44 147.997 2154.44 147.206L2153.65 146.414Z" fill="white"/>
<path d="M2335.55 208.937C2335.55 225.557 2341.09 234.263 2352.95 234.263C2364.82 234.263 2357.7 234.263 2360.86 233.471C2364.82 233.471 2367.19 232.68 2368.77 232.68C2371.94 232.68 2374.31 233.471 2376.68 235.846C2379.05 238.22 2379.85 240.594 2379.85 243.76C2379.85 251.674 2375.1 255.631 2364.82 255.631H2362.45C2361.65 255.631 2360.86 255.631 2360.07 255.631L2343.46 253.257C2337.14 252.466 2330.02 251.674 2322.11 251.674C2314.2 251.674 2306.29 251.674 2299.96 253.257L2283.35 255.631C2283.35 255.631 2281.77 255.631 2280.98 255.631H2278.61C2269.12 255.631 2263.58 251.674 2263.58 243.76C2263.58 235.846 2267.54 232.68 2274.65 232.68C2281.77 232.68 2279.4 232.68 2282.56 233.471C2286.52 233.471 2288.89 234.263 2290.47 234.263C2301.55 234.263 2307.08 225.557 2307.08 208.937V72.8114C2307.08 56.9828 2299.17 49.0685 2282.56 49.0685H2272.28C2256.46 49.0685 2248.55 56.9828 2248.55 72.8114C2248.55 88.64 2248.55 82.3086 2248.55 83.8914L2250.14 96.5543C2250.14 98.9286 2250.14 101.303 2250.14 105.26C2250.14 119.506 2245.39 126.629 2236.69 126.629C2227.99 126.629 2224.04 121.88 2224.04 111.591C2224.04 101.303 2224.04 103.677 2224.04 96.5543C2224.04 85.4743 2224.83 79.1428 2224.83 75.9771C2224.83 70.4371 2224.83 64.8971 2224.83 58.5657C2224.83 46.6943 2224.04 41.9457 2224.04 43.5286C2224.04 34.0314 2227.99 29.2828 2236.69 29.2828C2245.39 29.2828 2246.97 29.2828 2258.05 30.0743C2258.84 30.0743 2268.33 30.0743 2285.73 31.6571H2323.69C2328.44 31.6571 2340.3 31.6571 2359.28 31.6571C2363.24 31.6571 2371.15 31.6571 2380.64 30.8657C2390.13 30.8657 2397.25 30.0743 2401.99 30.0743C2413.06 30.0743 2418.6 34.8228 2418.6 43.5286C2418.6 46.6943 2418.6 50.6514 2417.81 56.9828C2417.81 63.3143 2417.02 69.6457 2416.23 76.7686V80.7257C2416.23 83.8914 2416.23 89.4314 2417.02 96.5543C2417.81 106.051 2418.6 111.591 2418.6 113.966C2418.6 123.463 2413.85 127.42 2405.15 127.42C2396.45 127.42 2392.5 121.88 2392.5 110.8C2392.5 99.72 2392.5 100.511 2393.29 92.5971C2393.29 84.6828 2394.08 78.3514 2394.08 74.3943C2394.08 58.5657 2385.38 51.4428 2367.98 51.4428H2358.49C2350.58 51.4428 2344.25 53.0257 2341.09 56.9828C2337.14 60.1485 2335.55 66.48 2334.76 74.3943L2333.18 98.1371V212.103L2335.55 208.937Z" fill="white"/>
<path d="M2508.76 22.16C2530.91 22.16 2548.31 29.2829 2562.55 43.5286V38.78C2562.55 30.0743 2565.71 25.3257 2572.83 25.3257C2579.95 25.3257 2583.9 30.0743 2583.9 39.5715V41.9458C2583.9 41.9458 2583.9 45.9029 2583.11 52.2343C2583.11 58.5657 2582.32 65.6886 2582.32 74.3943C2582.32 83.1 2582.32 79.1429 2582.32 85.4743V98.9286C2583.9 99.72 2583.9 101.303 2583.9 103.677C2583.9 114.757 2579.95 119.506 2571.25 119.506C2562.55 119.506 2557.8 114.757 2557.8 106.051V94.9715C2558.59 91.8057 2558.59 89.4315 2558.59 87.8486C2558.59 74.3943 2553.85 64.1057 2545.15 56.1915C2536.45 48.2772 2523.79 45.1115 2507.97 45.1115C2492.15 45.1115 2481.87 49.0686 2473.17 56.1915C2464.47 63.3143 2460.52 72.8115 2460.52 84.6829C2460.52 96.5543 2466.85 109.217 2479.5 115.549C2486.62 119.506 2499.27 122.671 2516.67 125.046C2543.56 129.003 2561.75 135.334 2571.25 142.457C2586.27 153.537 2593.39 168.574 2593.39 189.151C2593.39 209.729 2585.48 227.14 2570.45 240.594C2555.43 254.049 2535.65 260.38 2511.93 260.38C2488.2 260.38 2465.26 252.466 2448.65 236.637V241.386C2449.45 244.551 2450.24 246.926 2450.24 248.509C2450.24 256.423 2446.28 260.38 2437.58 260.38C2428.88 260.38 2424.14 255.631 2424.14 246.134C2424.14 236.637 2424.14 243.76 2424.93 243.76L2426.51 226.349C2426.51 217.643 2427.3 212.103 2427.3 209.729C2427.3 204.98 2427.3 198.649 2425.72 189.943C2424.14 181.237 2424.14 174.114 2424.14 170.157C2424.14 159.869 2428.09 155.12 2436.79 155.12C2445.49 155.12 2450.24 159.869 2450.24 170.157V183.611C2450.24 200.231 2455.77 213.686 2466.05 223.974C2477.13 233.471 2491.36 239.011 2509.55 239.011C2527.75 239.011 2539.61 235.054 2549.89 227.14C2560.17 219.226 2564.92 208.146 2564.92 194.691C2564.92 173.323 2551.47 160.66 2524.58 155.911L2505.6 152.746C2486.62 149.58 2471.59 145.623 2461.31 140.874C2451.82 136.917 2443.91 129.794 2438.37 121.089C2432.84 112.383 2429.67 102.094 2429.67 90.2229C2429.67 70.4372 2436.79 54.6086 2451.03 41.9458C2465.26 29.2829 2483.45 23.7429 2506.39 23.7429L2508.76 22.16Z" fill="white"/>
</svg>
